#!OML:ASF I:\Actors\actors\Patient Classification 1\Patient 1\Session 1\Subject1.ASF
:FULLY-SPECIFIED
:DEGREES
441
root -0.265775 17.5847 7.63271 7.2187 -4.28146 -7.71012
lowerback 3.85342 2.7507 5.31751
upperback -7.46324 4.29149 1.23825
thorax -9.81398 1.74578 -2.16194
lowerneck -12.9402 -3.35465 0.742809
upperneck 29.8289 -4.52453 -1.76348
head 11.8339 -2.17911 -1.40969
rclavicle 1.18277e-014 6.75868e-015
rhumerus -3.30185 35.0256 -86.9555
rradius 83.5126
rwrist 23.3528
rhand -24.3396 -49.582
rfingers 7.12502
rthumb 2.14939 -1519.55
lclavicle 1.18277e-014 6.75868e-015
lhumerus -33.774 -28.5263 103.725
lradius 89.2476
lwrist 7.3668
lhand -39.9917 -7.1149
lfingers 7.12502
lthumb -12.9598 22.4626
rfemur -2.14848 24.3101 24.5723
rtibia 2.62703
rfoot -10.6765 -19.7348
rtoes -1.93091
lfemur 7.91593 -40.3575 -16.9293
ltibia -3.80442
lfoot -19.5093 50.9978
ltoes 13.135
442
root -0.266178 17.5883 7.63001 7.32282 -3.94296 -7.60574
lowerback 3.80521 2.65836 5.31216
upperback -7.54666 4.16402 1.19512
thorax -9.8846 1.67883 -2.19021
lowerneck -13.0781 -3.40963 0.81692
upperneck 29.9637 -4.61562 -1.80308
head 11.9107 -2.21477 -1.45627
rclavicle 1.87355e-014 3.97569e-016
rhumerus -3.17909 34.8839 -87.1602
rradius 83.5977
rwrist 24.0454
rhand -28.3442 -53.9753
rfingers 7.12502
rthumb -1.71839 -1523.95
lclavicle 1.87355e-014 3.97569e-016
lhumerus -33.6782 -28.4515 103.652
lradius 88.9534
lwrist 7.48469
lhand -39.8979 -6.96108
lfingers 7.12502
lthumb -12.8694 22.6222
rfemur -2.20614 24.3017 24.4224
rtibia 2.52167
rfoot -10.7702 -20.0288
rtoes -1.36787
lfemur 7.73401 -40.7806 -16.9538
ltibia -3.82539
lfoot -19.1602 51.1855
ltoes 12.6038
443
root -0.267026 17.5879 7.62443 7.28962 -3.84996 -7.60432
lowerback 3.92219 2.62552 5.28555
upperback -7.62931 4.13327 1.22587
thorax -10.0539 1.66036 -2.14835
lowerneck -13.2029 -3.48444 0.854403
upperneck 30.2482 -4.73996 -1.8084
head 12.0464 -2.26323 -1.49219
rclavicle 1.30701e-014 -5.40694e-014
rhumerus -2.92146 35.2381 -86.8955
rradius 81.4498
rwrist 26.1834
rhand -32.6935 -55.6025
rfingers 7.12502
rthumb -5.91826 -1525.5
lclavicle 1.30701e-014 -5.40694e-014
lhumerus -33.5498 -28.4956 103.629
lradius 88.5412
lwrist 7.40158
lhand -39.9983 -7.12009
lfingers 7.12502
lthumb -12.9661 22.457
rfemur -2.17608 24.3115 24.4376
rtibia 2.52078
rfoot -10.8575 -20.079
rtoes -0.894659
lfemur 7.78896 -40.9376 -17.0065
ltibia -3.84732
lfoot -19.0713 51.299
ltoes 12.4211
444
root -0.267535 17.5839 7.61769 7.10724 -3.97025 -7.68239
lowerback 4.16833 2.66793 5.30612
upperback -7.70011 4.21975 1.28523
thorax -10.2793 1.69455 -2.12265
lowerneck -13.3306 -3.60531 0.606
upperneck 30.6467 -4.95961 -1.49154
head 12.2484 -2.34307 -1.37544
rclavicle 4.05521e-014 4.09496e-014
rhumerus -2.48473 36.6902 -85.9217
rradius 77.5807
rwrist 29.8765
rhand -33.6216 -54.3555
rfingers 7.12502
rthumb -6.81431 -1524.23
lclavicle 4.05521e-014 4.09496e-014
lhumerus -33.4375 -28.693 103.664
lradius 88.1191
lwrist 7.51286
lhand -40.0874 -7.57542
lfingers 7.12502
lthumb -13.052 21.9962
rfemur -2.02149 24.3216 24.6069
rtibia 2.61181
rfoot -10.9356 -19.9195
rtoes -0.682131
lfemur 8.14203 -40.9044 -17.1467
ltibia -3.92298
lfoot -19.1249 51.4046
ltoes 12.4191
445
root -0.268258 17.581 7.60989 6.88732 -4.1676 -7.58943
lowerback 4.36815 2.78115 5.25591
upperback -7.75459 4.3806 1.23058
thorax -10.4485 1.76715 -2.1859
lowerneck -13.3475 -3.79415 0.157513
upperneck 30.9294 -5.30047 -0.931641
head 12.3983 -2.46978 -1.14402
rclavicle -4.80562e-014 -3.97569e-014
rhumerus -1.46048 38.9091 -83.9776
rradius 72.4553
rwrist 34.8725
rhand -30.3887 -50.1292
rfingers 7.12502
rthumb -3.69279 -1520.08
lclavicle -4.80562e-014 -3.97569e-014
lhumerus -33.2274 -29.1429 103.691
lradius 87.7045
lwrist 7.80769
lhand -39.9936 -7.46539
lfingers 7.12502
lthumb -12.9616 22.112
rfemur -1.84727 24.2748 24.5808
rtibia 2.68814
rfoot -10.9006 -19.7022
rtoes -0.828631
lfemur 8.47087 -40.6799 -17.4741
ltibia -3.9314
lfoot -19.2669 51.3499
ltoes 12.6581
446
root -0.268973 17.5773 7.60031 6.66453 -4.39385 -7.47536
lowerback 4.49731 2.92403 5.21224
upperback -7.75427 4.57217 1.16041
thorax -10.509 1.85784 -2.26807
lowerneck -13.3104 -3.99475 -0.171736
upperneck 31.108 -5.62942 -0.560234
head 12.4876 -2.60353 -0.997988
rclavicle -4.07509e-015 -3.02153e-014
rhumerus 0.832366 42.1813 -81.3482
rradius 65.2588
rwrist 36.8136
rhand -23.4881 -45.162
rfingers 7.12502
rthumb 2.97172 -1515.12
lclavicle -4.07509e-015 -3.02153e-014
lhumerus -32.8346 -29.6361 103.664
lradius 87.3283
lwrist 8.00113
lhand -39.7018 -6.93661
lfingers 7.12502
lthumb -12.6803 22.6584
rfemur -1.70781 24.1501 24.5123
rtibia 2.77111
rfoot -10.7908 -19.4231
rtoes -1.24592
lfemur 8.67016 -40.2416 -17.7223
ltibia -3.86237
lfoot -19.2726 51.0992
ltoes 12.7071
447
root -0.269022 17.5734 7.59122 6.45206 -4.57954 -7.34335
lowerback 4.36872 3.05965 5.10856
upperback -7.57118 4.72334 1.13183
thorax -10.2182 1.95094 -2.24522
lowerneck -13.346 -4.14654 -0.137431
upperneck 31.0485 -5.83739 -0.626982
head 12.466 -2.7012 -1.05858
rclavicle 9.39258e-015 6.75868e-015
rhumerus 3.71066 45.0581 -78.4405
rradius 59.1212
rwrist 33.7952
rhand -7.57423 -42.8204
rfingers 7.12502
rthumb 18.3185 -1511.98
lclavicle 9.39258e-015 6.75868e-015
lhumerus -32.0821 -30.0983 103.498
lradius 87.0226
lwrist 8.05384
lhand -39.4168 -6.78111
lfingers 7.12502
lthumb -12.4055 22.8308
rfemur -1.56608 23.9502 24.4116
rtibia 2.82494
rfoot -10.6943 -19.1066
rtoes -1.62769
lfemur 8.77469 -39.6789 -17.9145
ltibia -3.76362
lfoot -18.8286 50.7392
ltoes 12.1693
